<mxfile host="app.diagrams.net" modified="2021-05-19T09:28:12.870Z" agent="5.0 (Windows NT 10.0; Win64; x64) AppleWebKit/537.36 (KHTML, like Gecko) Chrome/90.0.4430.212 Safari/537.36" etag="UahLTwBYdnFMA3fmQp-T" version="14.6.13" type="github">
  <diagram name="Page-1" id="13e1069c-82ec-6db2-03f1-153e76fe0fe0">
    <mxGraphModel dx="8210" dy="4820" grid="1" gridSize="10" guides="1" tooltips="1" connect="1" arrows="1" fold="1" page="1" pageScale="1" pageWidth="1100" pageHeight="850" background="#ffffff" math="0" shadow="0">
      <root>
        <mxCell id="0" />
        <mxCell id="1" parent="0" />
        <mxCell id="ozlEqdHtq1YX_P3JXQg_-59" value="loop [1,20]" style="shape=umlFrame;tabPosition=left;html=1;boundedLbl=1;labelInHeader=1;width=70;height=30;" parent="1" vertex="1">
          <mxGeometry x="-977.83" y="309" width="1186" height="935" as="geometry" />
        </mxCell>
        <mxCell id="ozlEqdHtq1YX_P3JXQg_-62" value="вставка в бд" style="html=1;verticalAlign=bottom;endArrow=block;labelBackgroundColor=none;fontFamily=Verdana;fontSize=12;edgeStyle=elbowEdgeStyle;elbow=vertical;exitX=0.211;exitY=0.154;exitDx=0;exitDy=0;exitPerimeter=0;" parent="1" edge="1">
          <mxGeometry relative="1" as="geometry">
            <mxPoint x="-97.64000000000044" y="1076.0699999999997" as="sourcePoint" />
            <mxPoint x="152.66999999999996" y="1074" as="targetPoint" />
            <Array as="points">
              <mxPoint x="-46.83000000000004" y="1074" />
              <mxPoint x="132.2499999999999" y="1194" />
              <mxPoint x="89.99999999999989" y="1204" />
            </Array>
          </mxGeometry>
        </mxCell>
        <mxCell id="ozlEqdHtq1YX_P3JXQg_-51" value="5.передача пароля и логина" style="html=1;verticalAlign=bottom;endArrow=block;labelBackgroundColor=none;fontFamily=Verdana;fontSize=12;edgeStyle=elbowEdgeStyle;elbow=vertical;" parent="1" edge="1">
          <mxGeometry relative="1" as="geometry">
            <mxPoint x="-416.33000000000004" y="1023" as="sourcePoint" />
            <mxPoint x="-101.83000000000004" y="1023" as="targetPoint" />
            <Array as="points">
              <mxPoint x="-131.33000000000004" y="1023" />
              <mxPoint x="-161.33000000000004" y="1143" />
              <mxPoint x="-203.58000000000004" y="1153" />
            </Array>
          </mxGeometry>
        </mxCell>
        <mxCell id="ozlEqdHtq1YX_P3JXQg_-31" value="3.передача пароля" style="html=1;verticalAlign=bottom;endArrow=block;labelBackgroundColor=none;fontFamily=Verdana;fontSize=12;edgeStyle=elbowEdgeStyle;elbow=vertical;" parent="1" source="5UJq4ZcLxgLSVfsXGpA9-72" target="7baba1c4bc27f4b0-4" edge="1">
          <mxGeometry relative="1" as="geometry">
            <mxPoint x="-406.83000000000004" y="794.0340000000001" as="sourcePoint" />
            <mxPoint x="-107.83000000000004" y="794" as="targetPoint" />
            <Array as="points">
              <mxPoint x="-181.83000000000004" y="794.29" />
              <mxPoint x="-211.83000000000004" y="914.29" />
              <mxPoint x="-254.08000000000004" y="924.29" />
            </Array>
          </mxGeometry>
        </mxCell>
        <mxCell id="ozlEqdHtq1YX_P3JXQg_-29" value="поиск регистраций логина" style="html=1;verticalAlign=bottom;endArrow=block;labelBackgroundColor=none;fontFamily=Verdana;fontSize=12;edgeStyle=elbowEdgeStyle;elbow=vertical;exitX=0.211;exitY=0.154;exitDx=0;exitDy=0;exitPerimeter=0;" parent="1" source="ozlEqdHtq1YX_P3JXQg_-12" target="7baba1c4bc27f4b0-5" edge="1">
          <mxGeometry relative="1" as="geometry">
            <mxPoint x="-91.83000000000004" y="394" as="sourcePoint" />
            <mxPoint x="228.16999999999996" y="394" as="targetPoint" />
            <Array as="points">
              <mxPoint x="154.16999999999996" y="394.28999999999996" />
              <mxPoint x="124.16999999999996" y="514.29" />
              <mxPoint x="81.91999999999996" y="524.29" />
            </Array>
          </mxGeometry>
        </mxCell>
        <mxCell id="5UJq4ZcLxgLSVfsXGpA9-53" value="opt" style="shape=umlFrame;tabPosition=left;html=1;boundedLbl=1;labelInHeader=1;width=50;height=30;" parent="1" vertex="1">
          <mxGeometry x="-1011.83" y="-586" width="1230" height="450" as="geometry" />
        </mxCell>
        <mxCell id="5UJq4ZcLxgLSVfsXGpA9-54" value="[выбрана авторизация]" style="text;align=center;" parent="5UJq4ZcLxgLSVfsXGpA9-53" vertex="1">
          <mxGeometry width="100" height="20" relative="1" as="geometry">
            <mxPoint x="59" y="3" as="offset" />
          </mxGeometry>
        </mxCell>
        <mxCell id="ozlEqdHtq1YX_P3JXQg_-3" value="" style="shape=umlDestroy;" parent="5UJq4ZcLxgLSVfsXGpA9-53" vertex="1">
          <mxGeometry x="420" y="414" width="33" height="28.34" as="geometry" />
        </mxCell>
        <mxCell id="5UJq4ZcLxgLSVfsXGpA9-32" value="loop" style="shape=umlFrame;tabPosition=left;html=1;boundedLbl=1;labelInHeader=1;width=50;height=30;" parent="1" vertex="1">
          <mxGeometry x="-952.83" y="-422" width="1141" height="246" as="geometry" />
        </mxCell>
        <mxCell id="5UJq4ZcLxgLSVfsXGpA9-11" value="alt" style="shape=umlFrame;tabWidth=110;tabHeight=30;tabPosition=left;html=1;boundedLbl=1;labelInHeader=1;width=70;height=30;" parent="1" vertex="1">
          <mxGeometry x="-1091.83" y="-596" width="1390" height="2560" as="geometry" />
        </mxCell>
        <mxCell id="5UJq4ZcLxgLSVfsXGpA9-12" value="session:false" style="text" parent="5UJq4ZcLxgLSVfsXGpA9-11" vertex="1">
          <mxGeometry width="100" height="20" relative="1" as="geometry">
            <mxPoint x="14" y="490" as="offset" />
          </mxGeometry>
        </mxCell>
        <mxCell id="5UJq4ZcLxgLSVfsXGpA9-13" value="session:true" style="line;strokeWidth=1;dashed=1;labelPosition=center;verticalLabelPosition=bottom;align=left;verticalAlign=top;spacingLeft=20;spacingTop=15;" parent="5UJq4ZcLxgLSVfsXGpA9-11" vertex="1">
          <mxGeometry x="-8.17" y="2002.69" width="1390" height="39.31" as="geometry" />
        </mxCell>
        <mxCell id="7baba1c4bc27f4b0-2" value="форма авторизации" style="shape=umlLifeline;perimeter=lifelinePerimeter;whiteSpace=wrap;html=1;container=1;collapsible=0;recursiveResize=0;outlineConnect=0;rounded=1;shadow=0;comic=0;labelBackgroundColor=none;strokeWidth=1;fontFamily=Verdana;fontSize=12;align=center;" parent="1" vertex="1">
          <mxGeometry x="-625.83" y="-755" width="100" height="599" as="geometry" />
        </mxCell>
        <mxCell id="7baba1c4bc27f4b0-10" value="" style="html=1;points=[];perimeter=orthogonalPerimeter;rounded=0;shadow=0;comic=0;labelBackgroundColor=none;strokeWidth=1;fontFamily=Verdana;fontSize=12;align=center;" parent="7baba1c4bc27f4b0-2" vertex="1">
          <mxGeometry x="47" y="362" width="10" height="202" as="geometry" />
        </mxCell>
        <mxCell id="5UJq4ZcLxgLSVfsXGpA9-65" value="" style="html=1;points=[];perimeter=orthogonalPerimeter;rounded=0;shadow=0;comic=0;labelBackgroundColor=none;strokeWidth=1;fontFamily=Verdana;fontSize=12;align=center;" parent="7baba1c4bc27f4b0-2" vertex="1">
          <mxGeometry x="46" y="202" width="10" height="100" as="geometry" />
        </mxCell>
        <mxCell id="7baba1c4bc27f4b0-4" value="контроллер событий бд&lt;br&gt;авторизации" style="shape=umlLifeline;perimeter=lifelinePerimeter;whiteSpace=wrap;html=1;container=1;collapsible=0;recursiveResize=0;outlineConnect=0;rounded=1;shadow=0;comic=0;labelBackgroundColor=none;strokeWidth=1;fontFamily=Verdana;fontSize=12;align=center;" parent="1" vertex="1">
          <mxGeometry x="-152.83000000000004" y="-756" width="100" height="2100" as="geometry" />
        </mxCell>
        <mxCell id="ozlEqdHtq1YX_P3JXQg_-36" value="проверка пароля&lt;br&gt;на соотвествите требованиям" style="html=1;verticalAlign=bottom;endArrow=block;labelBackgroundColor=none;fontFamily=Verdana;fontSize=12;elbow=vertical;edgeStyle=orthogonalEdgeStyle;curved=1;entryX=1.223;entryY=0.598;entryDx=0;entryDy=0;entryPerimeter=0;" parent="7baba1c4bc27f4b0-4" source="7baba1c4bc27f4b0-4" target="ozlEqdHtq1YX_P3JXQg_-33" edge="1">
          <mxGeometry x="0.0959" y="90" relative="1" as="geometry">
            <mxPoint x="121" y="1530" as="sourcePoint" />
            <mxPoint x="121" y="1638" as="targetPoint" />
            <Array as="points">
              <mxPoint x="101" y="1560" />
              <mxPoint x="101" y="1593" />
            </Array>
            <mxPoint y="1" as="offset" />
          </mxGeometry>
        </mxCell>
        <mxCell id="ozlEqdHtq1YX_P3JXQg_-12" value="" style="html=1;points=[];perimeter=orthogonalPerimeter;rounded=0;shadow=0;comic=0;labelBackgroundColor=none;strokeWidth=1;fontFamily=Verdana;fontSize=12;align=center;" parent="7baba1c4bc27f4b0-4" vertex="1">
          <mxGeometry x="45" y="1100" width="10" height="340" as="geometry" />
        </mxCell>
        <mxCell id="ozlEqdHtq1YX_P3JXQg_-32" value="" style="html=1;points=[];perimeter=orthogonalPerimeter;rounded=0;shadow=0;comic=0;labelBackgroundColor=none;strokeWidth=1;fontFamily=Verdana;fontSize=12;align=center;" parent="7baba1c4bc27f4b0-4" vertex="1">
          <mxGeometry x="45.59" y="1529" width="10" height="121" as="geometry" />
        </mxCell>
        <mxCell id="ozlEqdHtq1YX_P3JXQg_-33" value="" style="html=1;points=[];perimeter=orthogonalPerimeter;rounded=0;shadow=0;comic=0;labelBackgroundColor=none;strokeWidth=1;fontFamily=Verdana;fontSize=12;align=center;" parent="7baba1c4bc27f4b0-4" vertex="1">
          <mxGeometry x="51" y="1575" width="10" height="30" as="geometry" />
        </mxCell>
        <mxCell id="ozlEqdHtq1YX_P3JXQg_-50" value="" style="html=1;points=[];perimeter=orthogonalPerimeter;rounded=0;shadow=0;comic=0;labelBackgroundColor=none;strokeWidth=1;fontFamily=Verdana;fontSize=12;align=center;" parent="7baba1c4bc27f4b0-4" vertex="1">
          <mxGeometry x="45" y="1750" width="10" height="150" as="geometry" />
        </mxCell>
        <mxCell id="7baba1c4bc27f4b0-5" value="бд пользователей" style="shape=umlLifeline;perimeter=lifelinePerimeter;whiteSpace=wrap;html=1;container=1;collapsible=0;recursiveResize=0;outlineConnect=0;rounded=1;shadow=0;comic=0;labelBackgroundColor=none;strokeWidth=1;fontFamily=Verdana;fontSize=12;align=center;" parent="1" vertex="1">
          <mxGeometry x="108.16999999999996" y="-756" width="100" height="2150" as="geometry" />
        </mxCell>
        <mxCell id="ozlEqdHtq1YX_P3JXQg_-21" value="" style="html=1;points=[];perimeter=orthogonalPerimeter;rounded=0;shadow=0;comic=0;labelBackgroundColor=none;strokeWidth=1;fontFamily=Verdana;fontSize=12;align=center;" parent="7baba1c4bc27f4b0-5" vertex="1">
          <mxGeometry x="45" y="1100" width="10" height="120" as="geometry" />
        </mxCell>
        <mxCell id="ozlEqdHtq1YX_P3JXQg_-61" value="" style="html=1;points=[];perimeter=orthogonalPerimeter;rounded=0;shadow=0;comic=0;labelBackgroundColor=none;strokeWidth=1;fontFamily=Verdana;fontSize=12;align=center;" parent="7baba1c4bc27f4b0-5" vertex="1">
          <mxGeometry x="45" y="1740" width="10" height="160" as="geometry" />
        </mxCell>
        <mxCell id="7baba1c4bc27f4b0-6" value="личный кабинет" style="shape=umlLifeline;perimeter=lifelinePerimeter;whiteSpace=wrap;html=1;container=1;collapsible=0;recursiveResize=0;outlineConnect=0;rounded=1;shadow=0;comic=0;labelBackgroundColor=none;strokeWidth=1;fontFamily=Verdana;fontSize=12;align=center;size=40;" parent="1" vertex="1">
          <mxGeometry x="327.16999999999996" y="-294" width="100" height="938" as="geometry" />
        </mxCell>
        <mxCell id="5UJq4ZcLxgLSVfsXGpA9-8" value="" style="html=1;points=[];perimeter=orthogonalPerimeter;rounded=0;shadow=0;comic=0;labelBackgroundColor=none;strokeWidth=1;fontFamily=Verdana;fontSize=12;align=center;" parent="7baba1c4bc27f4b0-6" vertex="1">
          <mxGeometry x="45" y="90" width="10" height="140" as="geometry" />
        </mxCell>
        <mxCell id="7baba1c4bc27f4b0-7" value="бд авто" style="shape=umlLifeline;perimeter=lifelinePerimeter;whiteSpace=wrap;html=1;container=1;collapsible=0;recursiveResize=0;outlineConnect=0;rounded=1;shadow=0;comic=0;labelBackgroundColor=none;strokeWidth=1;fontFamily=Verdana;fontSize=12;align=center;" parent="1" vertex="1">
          <mxGeometry x="780.17" y="-295" width="100" height="860" as="geometry" />
        </mxCell>
        <mxCell id="7baba1c4bc27f4b0-8" value="Пользователь" style="shape=umlLifeline;perimeter=lifelinePerimeter;whiteSpace=wrap;html=1;container=1;collapsible=0;recursiveResize=0;outlineConnect=0;rounded=1;shadow=0;comic=0;labelBackgroundColor=none;strokeWidth=1;fontFamily=Verdana;fontSize=12;align=center;" parent="1" vertex="1">
          <mxGeometry x="14" y="90" width="100" height="3170" as="geometry" />
        </mxCell>
        <mxCell id="7baba1c4bc27f4b0-9" value="" style="html=1;points=[];perimeter=orthogonalPerimeter;rounded=0;shadow=0;comic=0;labelBackgroundColor=none;strokeWidth=1;fontFamily=Verdana;fontSize=12;align=center;" parent="7baba1c4bc27f4b0-8" vertex="1">
          <mxGeometry x="-946.83" y="-786" width="10" height="90" as="geometry" />
        </mxCell>
        <mxCell id="5UJq4ZcLxgLSVfsXGpA9-60" value="" style="html=1;points=[];perimeter=orthogonalPerimeter;rounded=0;shadow=0;comic=0;labelBackgroundColor=none;strokeWidth=1;fontFamily=Verdana;fontSize=12;align=center;" parent="7baba1c4bc27f4b0-8" vertex="1">
          <mxGeometry x="-946.83" y="33" width="10" height="107" as="geometry" />
        </mxCell>
        <mxCell id="5UJq4ZcLxgLSVfsXGpA9-64" value="" style="html=1;points=[];perimeter=orthogonalPerimeter;rounded=0;shadow=0;comic=0;labelBackgroundColor=none;strokeWidth=1;fontFamily=Verdana;fontSize=12;align=center;" parent="7baba1c4bc27f4b0-8" vertex="1">
          <mxGeometry x="-946.83" y="-643" width="10" height="100" as="geometry" />
        </mxCell>
        <mxCell id="ozlEqdHtq1YX_P3JXQg_-10" value="" style="html=1;points=[];perimeter=orthogonalPerimeter;rounded=0;shadow=0;comic=0;labelBackgroundColor=none;strokeWidth=1;fontFamily=Verdana;fontSize=12;align=center;" parent="7baba1c4bc27f4b0-8" vertex="1">
          <mxGeometry x="-946.83" y="264" width="10" height="840" as="geometry" />
        </mxCell>
        <mxCell id="aM3WUYIUwHqpuG_lVAmX-4" value="" style="html=1;points=[];perimeter=orthogonalPerimeter;rounded=0;shadow=0;comic=0;labelBackgroundColor=none;strokeWidth=1;fontFamily=Verdana;fontSize=12;align=center;" parent="7baba1c4bc27f4b0-8" vertex="1">
          <mxGeometry x="-946.83" y="1354" width="10" height="240" as="geometry" />
        </mxCell>
        <mxCell id="7baba1c4bc27f4b0-16" value="" style="html=1;points=[];perimeter=orthogonalPerimeter;rounded=0;shadow=0;comic=0;labelBackgroundColor=none;strokeWidth=1;fontFamily=Verdana;fontSize=12;align=center;" parent="1" vertex="1">
          <mxGeometry x="-107.83000000000004" y="-378" width="10" height="164" as="geometry" />
        </mxCell>
        <mxCell id="7baba1c4bc27f4b0-19" value="" style="html=1;points=[];perimeter=orthogonalPerimeter;rounded=0;shadow=0;comic=0;labelBackgroundColor=none;strokeWidth=1;fontFamily=Verdana;fontSize=12;align=center;" parent="1" vertex="1">
          <mxGeometry x="153.16999999999996" y="-367" width="10" height="40" as="geometry" />
        </mxCell>
        <mxCell id="7baba1c4bc27f4b0-20" value="получить данные&lt;br&gt;пользователя" style="html=1;verticalAlign=bottom;endArrow=block;entryX=0;entryY=0;labelBackgroundColor=none;fontFamily=Verdana;fontSize=12;edgeStyle=elbowEdgeStyle;elbow=vertical;" parent="1" target="7baba1c4bc27f4b0-19" edge="1">
          <mxGeometry relative="1" as="geometry">
            <mxPoint x="-97.83000000000004" y="-367" as="sourcePoint" />
          </mxGeometry>
        </mxCell>
        <mxCell id="7baba1c4bc27f4b0-21" value="(логин,пароль)" style="html=1;verticalAlign=bottom;endArrow=open;dashed=1;endSize=8;labelBackgroundColor=none;fontFamily=Verdana;fontSize=12;edgeStyle=elbowEdgeStyle;elbow=vertical;" parent="1" source="7baba1c4bc27f4b0-19" edge="1">
          <mxGeometry relative="1" as="geometry">
            <mxPoint x="-97.83000000000004" y="-337" as="targetPoint" />
            <Array as="points">
              <mxPoint x="-22.83000000000004" y="-337" />
              <mxPoint x="7.169999999999959" y="-337" />
            </Array>
          </mxGeometry>
        </mxCell>
        <mxCell id="7baba1c4bc27f4b0-25" value="" style="html=1;points=[];perimeter=orthogonalPerimeter;rounded=0;shadow=0;comic=0;labelBackgroundColor=none;strokeColor=#000000;strokeWidth=1;fillColor=#FFFFFF;fontFamily=Verdana;fontSize=12;fontColor=#000000;align=center;" parent="1" vertex="1">
          <mxGeometry x="799.17" y="125" width="10" height="30" as="geometry" />
        </mxCell>
        <mxCell id="7baba1c4bc27f4b0-26" value="запись id сессии" style="html=1;verticalAlign=bottom;endArrow=block;labelBackgroundColor=none;fontFamily=Verdana;fontSize=12;startArrow=none;exitX=1.193;exitY=0.452;exitDx=0;exitDy=0;exitPerimeter=0;entryX=0.01;entryY=0.019;entryDx=0;entryDy=0;entryPerimeter=0;" parent="1" source="5UJq4ZcLxgLSVfsXGpA9-27" target="7baba1c4bc27f4b0-6" edge="1">
          <mxGeometry relative="1" as="geometry">
            <mxPoint x="-97.83000000000004" y="-234" as="sourcePoint" />
            <mxPoint x="131.16999999999996" y="-276" as="targetPoint" />
          </mxGeometry>
        </mxCell>
        <mxCell id="7baba1c4bc27f4b0-14" value="передать данные: логин, пароль" style="html=1;verticalAlign=bottom;endArrow=block;labelBackgroundColor=none;fontFamily=Verdana;fontSize=12;edgeStyle=elbowEdgeStyle;elbow=vertical;" parent="1" source="7baba1c4bc27f4b0-10" edge="1">
          <mxGeometry relative="1" as="geometry">
            <mxPoint x="-575.83" y="-397" as="sourcePoint" />
            <mxPoint x="-103.3300000000005" y="-357" as="targetPoint" />
            <Array as="points">
              <mxPoint x="-455.83000000000004" y="-357" />
            </Array>
          </mxGeometry>
        </mxCell>
        <mxCell id="7baba1c4bc27f4b0-34" value="" style="html=1;points=[];perimeter=orthogonalPerimeter;rounded=0;shadow=0;comic=0;labelBackgroundColor=none;strokeWidth=1;fontFamily=Verdana;fontSize=12;align=center;" parent="1" vertex="1">
          <mxGeometry x="-102.83000000000004" y="-297" width="10" height="70" as="geometry" />
        </mxCell>
        <mxCell id="7baba1c4bc27f4b0-35" value="проверить данные&lt;br&gt;пользователя" style="html=1;verticalAlign=bottom;endArrow=block;labelBackgroundColor=none;fontFamily=Verdana;fontSize=12;elbow=vertical;edgeStyle=orthogonalEdgeStyle;curved=1;entryX=1.213;entryY=0.072;entryPerimeter=0;exitX=1.038;exitY=0.345;exitPerimeter=0;entryDx=0;entryDy=0;" parent="1" target="7baba1c4bc27f4b0-34" edge="1">
          <mxGeometry x="0.2047" y="14" relative="1" as="geometry">
            <mxPoint x="-97.44999999999993" y="-314.9000000000001" as="sourcePoint" />
            <mxPoint x="-97.83000000000004" y="-367" as="targetPoint" />
            <Array as="points">
              <mxPoint x="-42.83000000000004" y="-315" />
              <mxPoint x="-42.83000000000004" y="-292" />
            </Array>
            <mxPoint as="offset" />
          </mxGeometry>
        </mxCell>
        <mxCell id="5UJq4ZcLxgLSVfsXGpA9-1" value="" style="shape=umlActor;verticalLabelPosition=bottom;verticalAlign=top;html=1;outlineConnect=0;" parent="1" vertex="1">
          <mxGeometry x="-942.83" y="-825" width="30" height="60" as="geometry" />
        </mxCell>
        <mxCell id="5UJq4ZcLxgLSVfsXGpA9-5" value="Boundary Object" style="shape=umlBoundary;whiteSpace=wrap;html=1;" parent="1" vertex="1">
          <mxGeometry x="-625.83" y="-843" width="100" height="80" as="geometry" />
        </mxCell>
        <mxCell id="5UJq4ZcLxgLSVfsXGpA9-6" value="Control Object" style="ellipse;shape=umlControl;whiteSpace=wrap;html=1;" parent="1" vertex="1">
          <mxGeometry x="-137.83000000000004" y="-844" width="70" height="80" as="geometry" />
        </mxCell>
        <mxCell id="5UJq4ZcLxgLSVfsXGpA9-7" value="Entity Object" style="ellipse;shape=umlEntity;whiteSpace=wrap;html=1;" parent="1" vertex="1">
          <mxGeometry x="118.16999999999996" y="-843" width="80" height="80" as="geometry" />
        </mxCell>
        <mxCell id="5UJq4ZcLxgLSVfsXGpA9-15" value="котроллер данных" style="shape=umlLifeline;perimeter=lifelinePerimeter;whiteSpace=wrap;html=1;container=1;collapsible=0;recursiveResize=0;outlineConnect=0;rounded=1;shadow=0;comic=0;labelBackgroundColor=none;strokeWidth=1;fontFamily=Verdana;fontSize=12;align=center;" parent="1" vertex="1">
          <mxGeometry x="-763.83" y="-756" width="102" height="2120" as="geometry" />
        </mxCell>
        <mxCell id="5UJq4ZcLxgLSVfsXGpA9-16" value="" style="html=1;points=[];perimeter=orthogonalPerimeter;rounded=0;shadow=0;comic=0;labelBackgroundColor=none;strokeWidth=1;fontFamily=Verdana;fontSize=12;align=center;" parent="5UJq4ZcLxgLSVfsXGpA9-15" vertex="1">
          <mxGeometry x="45" y="60" width="10" height="90" as="geometry" />
        </mxCell>
        <mxCell id="5UJq4ZcLxgLSVfsXGpA9-21" value="" style="html=1;points=[];perimeter=orthogonalPerimeter;rounded=0;shadow=0;comic=0;labelBackgroundColor=none;strokeWidth=1;fontFamily=Verdana;fontSize=12;align=center;" parent="5UJq4ZcLxgLSVfsXGpA9-15" vertex="1">
          <mxGeometry x="50" y="88" width="10" height="52" as="geometry" />
        </mxCell>
        <mxCell id="5UJq4ZcLxgLSVfsXGpA9-22" value="sessionCheck()" style="html=1;verticalAlign=bottom;endArrow=block;labelBackgroundColor=none;fontFamily=Verdana;fontSize=12;elbow=vertical;edgeStyle=orthogonalEdgeStyle;curved=1;" parent="5UJq4ZcLxgLSVfsXGpA9-15" source="5UJq4ZcLxgLSVfsXGpA9-16" target="5UJq4ZcLxgLSVfsXGpA9-21" edge="1">
          <mxGeometry x="0.0983" relative="1" as="geometry">
            <mxPoint x="70.00000000000011" y="79.99999999999991" as="sourcePoint" />
            <mxPoint x="74.62" y="117.91999999999999" as="targetPoint" />
            <Array as="points">
              <mxPoint x="125" y="80" />
              <mxPoint x="125" y="118" />
            </Array>
            <mxPoint as="offset" />
          </mxGeometry>
        </mxCell>
        <mxCell id="5UJq4ZcLxgLSVfsXGpA9-19" value="$session:data&amp;nbsp;" style="html=1;verticalAlign=bottom;endArrow=block;labelBackgroundColor=none;fontFamily=Verdana;fontSize=12;edgeStyle=elbowEdgeStyle;elbow=vertical;" parent="1" edge="1">
          <mxGeometry relative="1" as="geometry">
            <mxPoint x="-921.83" y="-676" as="sourcePoint" />
            <mxPoint x="-721.83" y="-676" as="targetPoint" />
            <Array as="points">
              <mxPoint x="-795.83" y="-676" />
              <mxPoint x="-825.83" y="-556" />
              <mxPoint x="-868.08" y="-546" />
            </Array>
          </mxGeometry>
        </mxCell>
        <mxCell id="5UJq4ZcLxgLSVfsXGpA9-20" value="Control Object" style="ellipse;shape=umlControl;whiteSpace=wrap;html=1;" parent="1" vertex="1">
          <mxGeometry x="-750.83" y="-850" width="70" height="80" as="geometry" />
        </mxCell>
        <mxCell id="5UJq4ZcLxgLSVfsXGpA9-23" value="session:bool" style="html=1;verticalAlign=bottom;endArrow=open;dashed=1;endSize=8;exitX=-0.192;exitY=0.808;labelBackgroundColor=none;fontFamily=Verdana;fontSize=12;exitDx=0;exitDy=0;exitPerimeter=0;" parent="1" source="5UJq4ZcLxgLSVfsXGpA9-21" edge="1">
          <mxGeometry relative="1" as="geometry">
            <mxPoint x="-921.83" y="-626" as="targetPoint" />
            <mxPoint x="-390.83000000000004" y="-519" as="sourcePoint" />
          </mxGeometry>
        </mxCell>
        <mxCell id="5UJq4ZcLxgLSVfsXGpA9-24" value="3.(ввод данные логин,пароль)" style="html=1;verticalAlign=bottom;endArrow=block;labelBackgroundColor=none;fontFamily=Verdana;fontSize=12;edgeStyle=elbowEdgeStyle;elbow=vertical;" parent="1" edge="1">
          <mxGeometry relative="1" as="geometry">
            <mxPoint x="-921.83" y="-332" as="sourcePoint" />
            <mxPoint x="-576.33" y="-332" as="targetPoint" />
            <Array as="points">
              <mxPoint x="-851.83" y="-332" />
              <mxPoint x="-725.83" y="-352" />
              <mxPoint x="-825.83" y="-352" />
            </Array>
          </mxGeometry>
        </mxCell>
        <mxCell id="5UJq4ZcLxgLSVfsXGpA9-25" value="" style="html=1;points=[];perimeter=orthogonalPerimeter;rounded=0;shadow=0;comic=0;labelBackgroundColor=none;strokeWidth=1;fontFamily=Verdana;fontSize=12;align=center;" parent="1" vertex="1">
          <mxGeometry x="-97.83000000000004" y="-255" width="10" height="20" as="geometry" />
        </mxCell>
        <mxCell id="5UJq4ZcLxgLSVfsXGpA9-27" value="" style="html=1;points=[];perimeter=orthogonalPerimeter;rounded=0;shadow=0;comic=0;labelBackgroundColor=none;strokeWidth=1;fontFamily=Verdana;fontSize=12;align=center;" parent="1" vertex="1">
          <mxGeometry x="-97.83000000000004" y="-285" width="10" height="20" as="geometry" />
        </mxCell>
        <mxCell id="5UJq4ZcLxgLSVfsXGpA9-28" value="Boundary Object" style="shape=umlBoundary;whiteSpace=wrap;html=1;" parent="1" vertex="1">
          <mxGeometry x="327.16999999999996" y="-387" width="100" height="80" as="geometry" />
        </mxCell>
        <mxCell id="5UJq4ZcLxgLSVfsXGpA9-29" value="Entity Object" style="ellipse;shape=umlEntity;whiteSpace=wrap;html=1;" parent="1" vertex="1">
          <mxGeometry x="791.17" y="-387" width="80" height="80" as="geometry" />
        </mxCell>
        <mxCell id="5UJq4ZcLxgLSVfsXGpA9-30" value="контроллер бд" style="shape=umlLifeline;perimeter=lifelinePerimeter;whiteSpace=wrap;html=1;container=1;collapsible=0;recursiveResize=0;outlineConnect=0;rounded=1;shadow=0;comic=0;labelBackgroundColor=none;strokeWidth=1;fontFamily=Verdana;fontSize=12;align=center;size=40;" parent="1" vertex="1">
          <mxGeometry x="560.17" y="-294" width="100" height="920" as="geometry" />
        </mxCell>
        <mxCell id="5UJq4ZcLxgLSVfsXGpA9-34" value="" style="html=1;points=[];perimeter=orthogonalPerimeter;rounded=0;shadow=0;comic=0;labelBackgroundColor=none;strokeWidth=1;fontFamily=Verdana;fontSize=12;align=center;" parent="5UJq4ZcLxgLSVfsXGpA9-30" vertex="1">
          <mxGeometry x="46" y="495" width="10" height="158" as="geometry" />
        </mxCell>
        <mxCell id="5UJq4ZcLxgLSVfsXGpA9-31" value="Control Object" style="ellipse;shape=umlControl;whiteSpace=wrap;html=1;" parent="1" vertex="1">
          <mxGeometry x="576.17" y="-387" width="70" height="80" as="geometry" />
        </mxCell>
        <mxCell id="5UJq4ZcLxgLSVfsXGpA9-58" value="opt" style="shape=umlFrame;tabPosition=left;html=1;boundedLbl=1;labelInHeader=1;width=50;height=30;" parent="1" vertex="1">
          <mxGeometry x="-1031.83" y="94" width="1310" height="1240" as="geometry" />
        </mxCell>
        <mxCell id="5UJq4ZcLxgLSVfsXGpA9-59" value="[выбрана регистрация]" style="text;align=center;" parent="5UJq4ZcLxgLSVfsXGpA9-58" vertex="1">
          <mxGeometry width="100" height="20" relative="1" as="geometry">
            <mxPoint x="61" y="3" as="offset" />
          </mxGeometry>
        </mxCell>
        <mxCell id="5UJq4ZcLxgLSVfsXGpA9-61" value="4.результат входа" style="html=1;verticalAlign=bottom;endArrow=open;dashed=1;endSize=8;labelBackgroundColor=none;fontFamily=Verdana;fontSize=12;" parent="1" edge="1">
          <mxGeometry relative="1" as="geometry">
            <mxPoint x="-918.83" y="-230" as="targetPoint" />
            <mxPoint x="-576.33" y="-228.79999999999973" as="sourcePoint" />
          </mxGeometry>
        </mxCell>
        <mxCell id="5UJq4ZcLxgLSVfsXGpA9-62" value="ошибка входа" style="html=1;verticalAlign=bottom;endArrow=open;dashed=1;endSize=8;labelBackgroundColor=none;fontFamily=Verdana;fontSize=12;edgeStyle=elbowEdgeStyle;elbow=vertical;exitX=1.72;exitY=0.762;exitDx=0;exitDy=0;exitPerimeter=0;entryX=1.107;entryY=0.887;entryDx=0;entryDy=0;entryPerimeter=0;" parent="1" source="7baba1c4bc27f4b0-34" target="7baba1c4bc27f4b0-10" edge="1">
          <mxGeometry relative="1" as="geometry">
            <mxPoint x="-282.83000000000004" y="-52" as="targetPoint" />
            <Array as="points">
              <mxPoint x="-71.83000000000004" y="-122" />
              <mxPoint x="-207.83000000000004" y="-52" />
              <mxPoint x="-177.83000000000004" y="-52" />
            </Array>
            <mxPoint x="-152.83000000000004" y="-52" as="sourcePoint" />
          </mxGeometry>
        </mxCell>
        <mxCell id="5UJq4ZcLxgLSVfsXGpA9-63" value="" style="html=1;points=[];perimeter=orthogonalPerimeter;rounded=0;shadow=0;comic=0;labelBackgroundColor=none;strokeWidth=1;fontFamily=Verdana;fontSize=12;align=center;" parent="1" vertex="1">
          <mxGeometry x="-931.83" y="-367" width="10" height="181" as="geometry" />
        </mxCell>
        <mxCell id="5UJq4ZcLxgLSVfsXGpA9-66" value="1.нажатие на кнопку регистрации" style="html=1;verticalAlign=bottom;endArrow=block;labelBackgroundColor=none;fontFamily=Verdana;fontSize=12;edgeStyle=elbowEdgeStyle;elbow=vertical;" parent="1" edge="1">
          <mxGeometry relative="1" as="geometry">
            <mxPoint x="-921.83" y="-529" as="sourcePoint" />
            <mxPoint x="-579.83" y="-528.8299999999999" as="targetPoint" />
            <Array as="points">
              <mxPoint x="-691.83" y="-528.83" />
              <mxPoint x="-565.83" y="-548.83" />
              <mxPoint x="-665.83" y="-548.83" />
            </Array>
          </mxGeometry>
        </mxCell>
        <mxCell id="5UJq4ZcLxgLSVfsXGpA9-68" value="2.отображение формы" style="html=1;verticalAlign=bottom;endArrow=open;dashed=1;endSize=8;labelBackgroundColor=none;fontFamily=Verdana;fontSize=12;exitX=-0.073;exitY=0.789;exitDx=0;exitDy=0;exitPerimeter=0;" parent="1" source="5UJq4ZcLxgLSVfsXGpA9-65" target="5UJq4ZcLxgLSVfsXGpA9-64" edge="1">
          <mxGeometry relative="1" as="geometry">
            <mxPoint x="-776.83" y="-476" as="targetPoint" />
            <mxPoint x="-441.33000000000004" y="-475.7999999999997" as="sourcePoint" />
          </mxGeometry>
        </mxCell>
        <mxCell id="5UJq4ZcLxgLSVfsXGpA9-72" value="форма регистрации" style="shape=umlLifeline;perimeter=lifelinePerimeter;whiteSpace=wrap;html=1;container=1;collapsible=0;recursiveResize=0;outlineConnect=0;rounded=1;shadow=0;comic=0;labelBackgroundColor=none;strokeWidth=1;fontFamily=Verdana;fontSize=12;align=center;" parent="1" vertex="1">
          <mxGeometry x="-467.83000000000004" y="-47" width="106" height="1431" as="geometry" />
        </mxCell>
        <mxCell id="ozlEqdHtq1YX_P3JXQg_-2" value="" style="html=1;points=[];perimeter=orthogonalPerimeter;rounded=0;shadow=0;comic=0;labelBackgroundColor=none;strokeWidth=1;fontFamily=Verdana;fontSize=12;align=center;" parent="5UJq4ZcLxgLSVfsXGpA9-72" vertex="1">
          <mxGeometry x="48" y="170" width="10" height="106" as="geometry" />
        </mxCell>
        <mxCell id="ozlEqdHtq1YX_P3JXQg_-11" value="" style="html=1;points=[];perimeter=orthogonalPerimeter;rounded=0;shadow=0;comic=0;labelBackgroundColor=none;strokeWidth=1;fontFamily=Verdana;fontSize=12;align=center;" parent="5UJq4ZcLxgLSVfsXGpA9-72" vertex="1">
          <mxGeometry x="48" y="391" width="10" height="799" as="geometry" />
        </mxCell>
        <mxCell id="aM3WUYIUwHqpuG_lVAmX-5" value="" style="shape=umlDestroy;" parent="5UJq4ZcLxgLSVfsXGpA9-72" vertex="1">
          <mxGeometry x="38" y="1414" width="30" height="30" as="geometry" />
        </mxCell>
        <mxCell id="ozlEqdHtq1YX_P3JXQg_-1" value="Boundary Object" style="shape=umlBoundary;whiteSpace=wrap;html=1;" parent="1" vertex="1">
          <mxGeometry x="-464.83000000000004" y="-136" width="100" height="80" as="geometry" />
        </mxCell>
        <mxCell id="ozlEqdHtq1YX_P3JXQg_-4" value="1.Нажатие на кнопку регистрации" style="html=1;verticalAlign=bottom;endArrow=block;labelBackgroundColor=none;fontFamily=Verdana;fontSize=12;edgeStyle=elbowEdgeStyle;elbow=vertical;" parent="1" edge="1">
          <mxGeometry relative="1" as="geometry">
            <mxPoint x="-921.83" y="151" as="sourcePoint" />
            <mxPoint x="-421.83000000000004" y="151" as="targetPoint" />
            <Array as="points">
              <mxPoint x="-715.83" y="151.28999999999996" />
              <mxPoint x="-745.83" y="271.28999999999996" />
              <mxPoint x="-788.08" y="281.28999999999996" />
            </Array>
          </mxGeometry>
        </mxCell>
        <mxCell id="ozlEqdHtq1YX_P3JXQg_-5" value="2.отображение формы регистации" style="html=1;verticalAlign=bottom;endArrow=open;dashed=1;endSize=8;labelBackgroundColor=none;fontFamily=Verdana;fontSize=12;" parent="1" edge="1">
          <mxGeometry relative="1" as="geometry">
            <mxPoint x="-921.83" y="210" as="targetPoint" />
            <mxPoint x="-421.83000000000004" y="210" as="sourcePoint" />
          </mxGeometry>
        </mxCell>
        <mxCell id="ozlEqdHtq1YX_P3JXQg_-13" value="ввод логина&amp;nbsp;" style="html=1;verticalAlign=bottom;endArrow=block;labelBackgroundColor=none;fontFamily=Verdana;fontSize=12;edgeStyle=elbowEdgeStyle;elbow=vertical;" parent="1" edge="1">
          <mxGeometry x="0.1239" relative="1" as="geometry">
            <mxPoint x="-922.83" y="373.99999999999955" as="sourcePoint" />
            <mxPoint x="-422.83000000000004" y="373.99999999999955" as="targetPoint" />
            <Array as="points">
              <mxPoint x="-716.83" y="374.28999999999996" />
              <mxPoint x="-746.83" y="494.28999999999996" />
              <mxPoint x="-789.08" y="504.28999999999996" />
            </Array>
            <mxPoint as="offset" />
          </mxGeometry>
        </mxCell>
        <mxCell id="ozlEqdHtq1YX_P3JXQg_-15" value="1.передача логина" style="html=1;verticalAlign=bottom;endArrow=block;labelBackgroundColor=none;fontFamily=Verdana;fontSize=12;edgeStyle=elbowEdgeStyle;elbow=vertical;exitX=0.8;exitY=0.186;exitDx=0;exitDy=0;exitPerimeter=0;" parent="1" edge="1">
          <mxGeometry relative="1" as="geometry">
            <mxPoint x="-409.83000000000004" y="394.0340000000001" as="sourcePoint" />
            <mxPoint x="-110.83000000000004" y="394" as="targetPoint" />
            <Array as="points">
              <mxPoint x="-184.83000000000004" y="394.28999999999996" />
              <mxPoint x="-214.83000000000004" y="514.29" />
              <mxPoint x="-257.08000000000004" y="524.29" />
            </Array>
          </mxGeometry>
        </mxCell>
        <mxCell id="ozlEqdHtq1YX_P3JXQg_-22" value="assert" style="shape=umlFrame;whiteSpace=wrap;html=1;width=50;height=20;boundedLbl=1;verticalAlign=middle;align=left;spacingLeft=5;" parent="1" vertex="1">
          <mxGeometry x="-131.83000000000004" y="438" width="90" height="70" as="geometry" />
        </mxCell>
        <mxCell id="ozlEqdHtq1YX_P3JXQg_-16" value="2.alt" style="shape=umlFrame;tabWidth=110;tabHeight=30;tabPosition=left;html=1;boundedLbl=1;labelInHeader=1;width=40;height=15;" parent="1" vertex="1">
          <mxGeometry x="-441.83000000000004" y="518" width="340" height="130" as="geometry" />
        </mxCell>
        <mxCell id="ozlEqdHtq1YX_P3JXQg_-17" value="[занят ли логин?]" style="text" parent="ozlEqdHtq1YX_P3JXQg_-16" vertex="1">
          <mxGeometry width="100" height="20" relative="1" as="geometry">
            <mxPoint x="47" as="offset" />
          </mxGeometry>
        </mxCell>
        <mxCell id="ozlEqdHtq1YX_P3JXQg_-18" value="" style="line;strokeWidth=1;dashed=1;labelPosition=center;verticalLabelPosition=bottom;align=left;verticalAlign=top;spacingLeft=20;spacingTop=15;" parent="ozlEqdHtq1YX_P3JXQg_-16" vertex="1">
          <mxGeometry y="67" width="339.9999999999999" height="5.199999999999999" as="geometry" />
        </mxCell>
        <mxCell id="ozlEqdHtq1YX_P3JXQg_-20" value="логин не занят" style="html=1;verticalAlign=bottom;endArrow=open;dashed=1;endSize=8;labelBackgroundColor=none;fontFamily=Verdana;fontSize=12;exitX=-0.158;exitY=0.818;exitDx=0;exitDy=0;exitPerimeter=0;" parent="ozlEqdHtq1YX_P3JXQg_-16" source="ozlEqdHtq1YX_P3JXQg_-26" edge="1">
          <mxGeometry relative="1" as="geometry">
            <mxPoint x="30" y="109" as="targetPoint" />
            <mxPoint x="304.1621621621622" y="109" as="sourcePoint" />
          </mxGeometry>
        </mxCell>
        <mxCell id="ozlEqdHtq1YX_P3JXQg_-25" value="ошибка:логин занят" style="html=1;verticalAlign=bottom;endArrow=open;dashed=1;endSize=8;labelBackgroundColor=none;fontFamily=Verdana;fontSize=12;exitX=0.08;exitY=0.415;exitDx=0;exitDy=0;exitPerimeter=0;" parent="ozlEqdHtq1YX_P3JXQg_-16" source="ozlEqdHtq1YX_P3JXQg_-26" edge="1">
          <mxGeometry relative="1" as="geometry">
            <mxPoint x="30.88486486486488" y="40.000000000000455" as="targetPoint" />
            <mxPoint x="303.2432432432433" y="40" as="sourcePoint" />
          </mxGeometry>
        </mxCell>
        <mxCell id="ozlEqdHtq1YX_P3JXQg_-27" value="зарегистрирован ли &lt;br&gt;такой пользователь?" style="edgeStyle=orthogonalEdgeStyle;html=1;align=left;spacingLeft=2;endArrow=block;rounded=0;exitX=0.943;exitY=0.354;exitDx=0;exitDy=0;exitPerimeter=0;" parent="1" target="ozlEqdHtq1YX_P3JXQg_-26" edge="1">
          <mxGeometry x="0.2217" y="10" relative="1" as="geometry">
            <mxPoint x="-98.39999999999975" y="454.8199999999997" as="sourcePoint" />
            <Array as="points">
              <mxPoint x="-98.83000000000004" y="468" />
              <mxPoint x="-51.83000000000004" y="468" />
              <mxPoint x="-51.83000000000004" y="498" />
            </Array>
            <mxPoint x="-41.83000000000004" y="478" as="targetPoint" />
            <mxPoint as="offset" />
          </mxGeometry>
        </mxCell>
        <mxCell id="ozlEqdHtq1YX_P3JXQg_-26" value="" style="html=1;points=[];perimeter=orthogonalPerimeter;" parent="1" vertex="1">
          <mxGeometry x="-111.83000000000004" y="488" width="19.19" height="170" as="geometry" />
        </mxCell>
        <mxCell id="ozlEqdHtq1YX_P3JXQg_-30" value="результат:bool" style="html=1;verticalAlign=bottom;endArrow=open;dashed=1;endSize=8;labelBackgroundColor=none;fontFamily=Verdana;fontSize=12;entryX=1.126;entryY=0.259;entryDx=0;entryDy=0;entryPerimeter=0;" parent="1" edge="1">
          <mxGeometry relative="1" as="geometry">
            <mxPoint x="-97.56999999999982" y="429.47000000000025" as="targetPoint" />
            <mxPoint x="148.16999999999996" y="429" as="sourcePoint" />
          </mxGeometry>
        </mxCell>
        <mxCell id="ozlEqdHtq1YX_P3JXQg_-49" value="4.результат проверки" style="html=1;verticalAlign=bottom;endArrow=open;dashed=1;endSize=8;labelBackgroundColor=none;fontFamily=Verdana;fontSize=12;exitX=0.08;exitY=0.415;exitDx=0;exitDy=0;exitPerimeter=0;" parent="1" edge="1">
          <mxGeometry relative="1" as="geometry">
            <mxPoint x="-407.48513513513456" y="866.0000000000005" as="targetPoint" />
            <mxPoint x="-106.83480000000066" y="866.5500000000006" as="sourcePoint" />
          </mxGeometry>
        </mxCell>
        <mxCell id="ozlEqdHtq1YX_P3JXQg_-47" value="5.opt" style="shape=umlFrame;tabPosition=left;html=1;boundedLbl=1;labelInHeader=1;width=49;height=30;" parent="1" vertex="1">
          <mxGeometry x="-471.83000000000004" y="944" width="405" height="110" as="geometry" />
        </mxCell>
        <mxCell id="ozlEqdHtq1YX_P3JXQg_-48" value="пароль либо логин не соотвествуйют требованиям" style="text;align=center;" parent="ozlEqdHtq1YX_P3JXQg_-47" vertex="1">
          <mxGeometry width="100" height="20" relative="1" as="geometry">
            <mxPoint x="165" y="7" as="offset" />
          </mxGeometry>
        </mxCell>
        <mxCell id="ozlEqdHtq1YX_P3JXQg_-45" value="neg" style="shape=umlFrame;whiteSpace=wrap;html=1;" parent="ozlEqdHtq1YX_P3JXQg_-47" vertex="1">
          <mxGeometry x="26.83536585365853" y="35.866470588235295" width="357.3109756097561" height="66.27176470588236" as="geometry" />
        </mxCell>
        <mxCell id="ozlEqdHtq1YX_P3JXQg_-63" value="return:true" style="html=1;verticalAlign=bottom;endArrow=open;dashed=1;endSize=8;labelBackgroundColor=none;fontFamily=Verdana;fontSize=12;" parent="1" source="7baba1c4bc27f4b0-5" edge="1">
          <mxGeometry relative="1" as="geometry">
            <mxPoint x="-101.83000000000004" y="1124" as="targetPoint" />
            <mxPoint x="108.16999999999996" y="1124" as="sourcePoint" />
          </mxGeometry>
        </mxCell>
        <mxCell id="ozlEqdHtq1YX_P3JXQg_-65" value="return:true" style="html=1;verticalAlign=bottom;endArrow=open;dashed=1;endSize=8;labelBackgroundColor=none;fontFamily=Verdana;fontSize=12;" parent="1" edge="1">
          <mxGeometry relative="1" as="geometry">
            <mxPoint x="-401.83000000000004" y="1124" as="targetPoint" />
            <mxPoint x="-111.83000000000004" y="1124" as="sourcePoint" />
          </mxGeometry>
        </mxCell>
        <mxCell id="ozlEqdHtq1YX_P3JXQg_-57" value="s d выполнение регистрации&lt;br&gt;return:true" style="shape=umlFrame;tabPosition=left;html=1;boundedLbl=1;labelInHeader=1;width=160;height=30;" parent="1" vertex="1">
          <mxGeometry x="-1001.83" y="264" width="1250" height="1040" as="geometry" />
        </mxCell>
      </root>
    </mxGraphModel>
  </diagram>
</mxfile>
